<svg width="24" height="24" viewBox="0 0 24 24" fill="none" xmlns="http://www.w3.org/2000/svg">
<mask id="mask0_56907_1126" style="mask-type:alpha" maskUnits="userSpaceOnUse" x="0" y="0" width="24" height="24">
<rect width="24" height="24" fill="#D9D9D9"/>
</mask>
<g mask="url(#mask0_56907_1126)">
<path d="M15.25 19.2308V17.75H13.0577C12.559 17.75 12.133 17.5734 11.7798 17.2202C11.4266 16.867 11.25 16.441 11.25 15.9423V7.74995H8.74995V9.23075C8.74995 9.65255 8.6022 10.0112 8.3067 10.3067C8.0112 10.6022 7.65255 10.75 7.23075 10.75H3.7692C3.3474 10.75 2.98875 10.6022 2.69325 10.3067C2.39775 10.0112 2.25 9.65255 2.25 9.23075V4.7692C2.25 4.3474 2.39775 3.98875 2.69325 3.69325C2.98875 3.39775 3.3474 3.25 3.7692 3.25H7.23075C7.65255 3.25 8.0112 3.39775 8.3067 3.69325C8.6022 3.98875 8.74995 4.3474 8.74995 4.7692V6.25H15.25V4.7692C15.25 4.3474 15.3978 3.98875 15.6933 3.69325C15.9888 3.39775 16.3474 3.25 16.7692 3.25H20.2308C20.6526 3.25 21.0112 3.39775 21.3067 3.69325C21.6022 3.98875 21.75 4.3474 21.75 4.7692V9.23075C21.75 9.65255 21.6022 10.0112 21.3067 10.3067C21.0112 10.6022 20.6526 10.75 20.2308 10.75H16.7692C16.3474 10.75 15.9888 10.6022 15.6933 10.3067C15.3978 10.0112 15.25 9.65255 15.25 9.23075V7.74995H12.75V15.9423C12.75 16.032 12.7788 16.1058 12.8365 16.1635C12.8942 16.2212 12.9679 16.25 13.0577 16.25H15.25V14.7692C15.25 14.3474 15.3978 13.9888 15.6933 13.6933C15.9888 13.3978 16.3474 13.25 16.7692 13.25H20.2308C20.6526 13.25 21.0112 13.3978 21.3067 13.6933C21.6022 13.9888 21.75 14.3474 21.75 14.7692V19.2308C21.75 19.6526 21.6022 20.0112 21.3067 20.3067C21.0112 20.6022 20.6526 20.75 20.2308 20.75H16.7692C16.3474 20.75 15.9888 20.6022 15.6933 20.3067C15.3978 20.0112 15.25 19.6526 15.25 19.2308ZM16.75 9.25H20.25V4.74995H16.75V9.25ZM16.75 19.25H20.25V14.75H16.75V19.25ZM3.74995 9.25H7.25V4.74995H3.74995V9.25Z" fill="#47464F"/>
</g>
</svg>
