<svg width="24" height="24" viewBox="0 0 24 24" fill="none" xmlns="http://www.w3.org/2000/svg">
<mask id="mask0_56907_1119" style="mask-type:alpha" maskUnits="userSpaceOnUse" x="0" y="0" width="24" height="24">
<rect width="24" height="24" fill="#D9D9D9"/>
</mask>
<g mask="url(#mask0_56907_1119)">
<path d="M6.05 19.0001H8.77117V13.9616C8.77117 13.6222 8.89112 13.3325 9.13102 13.0926C9.37092 12.8527 9.66059 12.7328 10 12.7328H14C14.3394 12.7328 14.6291 12.8527 14.869 13.0926C15.1089 13.3325 15.2288 13.6222 15.2288 13.9616V19.0001H17.95V10.2039C17.95 10.1527 17.9388 10.1062 17.9163 10.0645C17.8939 10.0228 17.8635 9.98599 17.825 9.95394L12.1827 5.72509C12.1314 5.68022 12.0705 5.65779 12 5.65779C11.9295 5.65779 11.8686 5.68022 11.8173 5.72509L6.175 9.95394C6.13655 9.98599 6.1061 10.0228 6.08365 10.0645C6.06122 10.1062 6.05 10.1527 6.05 10.2039V19.0001ZM3.90002 19.0001V10.2039C3.90002 9.81382 3.9884 9.44424 4.16515 9.09519C4.34188 8.74612 4.5862 8.45866 4.8981 8.23281L10.5404 3.99436C10.9896 3.67 11.4756 3.50781 11.9984 3.50781C12.5213 3.50781 13.0083 3.67 13.4596 3.99436L19.1019 8.23281C19.4138 8.45866 19.6581 8.74612 19.8348 9.09519C20.0116 9.44424 20.1 9.81382 20.1 10.2039V19.0001C20.1 19.6091 19.8939 20.1196 19.4817 20.5318C19.0695 20.944 18.559 21.1501 17.95 21.1501H14.3077C13.9683 21.1501 13.6786 21.0301 13.4387 20.7902C13.1988 20.5503 13.0788 20.2606 13.0788 19.9212V14.8827H10.9211V19.9212C10.9211 20.2606 10.8012 20.5503 10.5613 20.7902C10.3214 21.0301 10.0317 21.1501 9.6923 21.1501H6.05C5.44103 21.1501 4.93047 20.944 4.5183 20.5318C4.10612 20.1196 3.90002 19.6091 3.90002 19.0001Z" fill="#47464F"/>
</g>
</svg>
