<?xml version="1.0"?>
<svg xmlns="http://www.w3.org/2000/svg" xmlns:xlink="http://www.w3.org/1999/xlink" width="1920" zoomAndPan="magnify" viewBox="0 0 1440 809.999993" height="1080" preserveAspectRatio="xMidYMid meet" version="1.0">
  <path fill="#ff8c5a" d="M 708.03125 186.679688 C 700.714844 157.464844 659.246094 157.464844 651.894531 186.679688 L 649.757812 195.289062 C 648.507812 200.296875 645.9375 204.875 642.320312 208.554688 C 638.703125 212.234375 634.167969 214.875 629.183594 216.207031 C 624.199219 217.542969 618.949219 217.519531 613.976562 216.136719 C 609.003906 214.757812 604.492188 212.074219 600.910156 208.359375 L 594.734375 202.007812 C 573.804688 180.355469 537.878906 201.101562 546.160156 230.042969 L 548.570312 238.597656 C 549.984375 243.550781 550.050781 248.796875 548.757812 253.785156 C 547.46875 258.773438 544.863281 263.328125 541.222656 266.972656 C 537.578125 270.617188 533.027344 273.222656 528.039062 274.519531 C 523.050781 275.816406 517.808594 275.753906 512.851562 274.34375 L 504.296875 271.902344 C 475.386719 263.621094 454.609375 299.550781 476.261719 320.480469 L 482.613281 326.652344 C 486.328125 330.238281 489.011719 334.75 490.394531 339.71875 C 491.773438 344.691406 491.796875 349.941406 490.464844 354.925781 C 489.128906 359.910156 486.488281 364.445312 482.808594 368.0625 C 479.128906 371.683594 474.550781 374.25 469.546875 375.5 L 460.933594 377.640625 C 431.71875 384.957031 431.71875 426.425781 460.933594 433.773438 L 469.546875 435.914062 C 474.550781 437.164062 479.128906 439.730469 482.808594 443.347656 C 486.488281 446.964844 489.128906 451.503906 490.464844 456.488281 C 491.796875 461.472656 491.773438 466.722656 490.394531 471.691406 C 489.011719 476.664062 486.328125 481.175781 482.613281 484.757812 L 476.261719 490.933594 C 454.609375 511.863281 475.359375 547.789062 504.296875 539.507812 L 512.851562 537.101562 C 517.8125 535.679688 523.058594 535.613281 528.050781 536.90625 C 533.042969 538.199219 537.597656 540.804688 541.246094 544.453125 C 544.890625 548.097656 547.496094 552.65625 548.789062 557.648438 C 550.085938 562.640625 550.019531 567.886719 548.597656 572.847656 L 546.160156 581.367188 C 537.878906 610.28125 573.804688 631.058594 594.734375 609.40625 L 600.910156 603.050781 C 604.492188 599.339844 609.003906 596.65625 613.976562 595.273438 C 618.949219 593.894531 624.199219 593.871094 629.183594 595.203125 C 634.167969 596.539062 638.703125 599.179688 642.320312 602.859375 C 645.9375 606.535156 648.507812 611.117188 649.757812 616.121094 L 651.894531 624.734375 C 659.214844 653.945312 700.683594 653.945312 708.03125 624.734375 L 710.171875 616.121094 C 711.421875 611.117188 713.988281 606.535156 717.605469 602.859375 C 721.226562 599.179688 725.761719 596.539062 730.746094 595.203125 C 735.730469 593.871094 740.980469 593.894531 745.949219 595.273438 C 750.921875 596.65625 755.433594 599.339844 759.019531 603.050781 L 765.191406 609.40625 C 786.121094 631.058594 822.050781 610.308594 813.769531 581.367188 L 811.359375 572.816406 C 809.941406 567.855469 809.875 562.609375 811.167969 557.617188 C 812.460938 552.625 815.066406 548.070312 818.710938 544.421875 C 822.359375 540.777344 826.914062 538.171875 831.90625 536.878906 C 836.898438 535.585938 842.148438 535.652344 847.105469 537.070312 L 855.628906 539.507812 C 884.539062 547.789062 905.320312 511.863281 883.667969 490.933594 L 877.3125 484.757812 C 873.601562 481.175781 870.914062 476.664062 869.535156 471.691406 C 868.15625 466.722656 868.132812 461.472656 869.464844 456.488281 C 870.796875 451.503906 873.441406 446.964844 877.121094 443.347656 C 880.796875 439.730469 885.378906 437.164062 890.382812 435.914062 L 898.996094 433.773438 C 928.207031 426.457031 928.207031 384.988281 898.996094 377.640625 L 890.382812 375.5 C 885.378906 374.25 880.796875 371.683594 877.121094 368.0625 C 873.441406 364.445312 870.796875 359.910156 869.464844 354.925781 C 868.132812 349.941406 868.15625 344.691406 869.535156 339.71875 C 870.914062 334.75 873.601562 330.238281 877.3125 326.652344 L 883.667969 320.480469 C 905.320312 299.550781 884.570312 263.621094 855.628906 271.902344 L 847.078125 274.3125 C 842.121094 275.730469 836.875 275.792969 831.886719 274.503906 C 826.898438 273.210938 822.34375 270.609375 818.699219 266.964844 C 815.054688 263.324219 812.449219 258.773438 811.152344 253.785156 C 809.855469 248.796875 809.917969 243.554688 811.328125 238.597656 L 813.769531 230.042969 C 822.050781 201.132812 786.121094 180.355469 765.191406 202.007812 L 759.019531 208.359375 C 755.433594 212.074219 750.921875 214.757812 745.949219 216.136719 C 740.980469 217.519531 735.730469 217.542969 730.746094 216.207031 C 725.761719 214.875 721.226562 212.234375 717.605469 208.554688 C 713.988281 204.875 711.421875 200.296875 710.171875 195.289062 Z M 679.964844 556.191406 C 660.019531 556.472656 640.21875 552.789062 621.714844 545.355469 C 603.207031 537.917969 586.359375 526.875 572.15625 512.871094 C 557.953125 498.867188 546.675781 482.183594 538.976562 463.78125 C 531.28125 445.382812 527.316406 425.636719 527.316406 405.691406 C 527.316406 385.746094 531.28125 366 538.976562 347.601562 C 546.675781 329.199219 557.953125 312.515625 572.15625 298.511719 C 586.359375 284.507812 603.207031 273.464844 621.714844 266.027344 C 640.21875 258.59375 660.019531 254.910156 679.964844 255.191406 C 719.882812 255.191406 758.167969 271.046875 786.398438 299.273438 C 814.625 327.503906 830.484375 365.785156 830.484375 405.707031 C 830.484375 445.625 814.625 483.910156 786.398438 512.136719 C 758.167969 540.363281 719.882812 556.222656 679.964844 556.222656 Z M 679.964844 556.191406 " fill-opacity="1" fill-rule="nonzero"/>
  <path fill="#ff8c5a" d="M 728.152344 357.851562 L 728.152344 370.902344 C 728.152344 383.140625 706.425781 392.65625 679.964844 392.65625 C 653.289062 392.65625 631.777344 383.140625 631.777344 370.902344 L 631.777344 357.851562 C 631.777344 345.890625 653.289062 336.101562 679.964844 336.101562 C 706.425781 336.101562 728.152344 345.890625 728.152344 357.851562 Z M 716.320312 394.558594 C 720.625 392.65625 724.925781 389.9375 728.152344 386.945312 L 728.152344 414.40625 C 728.152344 426.640625 706.425781 436.160156 679.964844 436.160156 C 653.289062 436.160156 631.777344 426.640625 631.777344 414.40625 L 631.777344 386.945312 C 634.789062 389.9375 639.089844 392.65625 643.390625 394.558594 C 653.074219 398.910156 665.980469 401.355469 679.964844 401.355469 C 693.730469 401.355469 706.640625 398.910156 716.320312 394.558594 Z M 643.390625 438.0625 C 653.074219 442.410156 665.980469 444.859375 679.964844 444.859375 C 693.730469 444.859375 706.640625 442.410156 716.320312 438.0625 C 720.625 436.160156 724.925781 433.4375 728.152344 430.449219 L 728.152344 453.558594 C 728.152344 465.792969 706.425781 475.308594 679.964844 475.308594 C 653.289062 475.308594 631.777344 465.792969 631.777344 453.558594 L 631.777344 430.449219 C 634.789062 433.4375 639.089844 436.160156 643.390625 438.0625 Z M 643.390625 438.0625 " fill-opacity="1" fill-rule="nonzero"/>
</svg>
