<svg xmlns="http://www.w3.org/2000/svg" width="64" height="64" viewBox="0 0 64 64" fill="none">
<path d="M35.2618 6.54609C34.4112 3.1513 29.5922 3.1513 28.7382 6.54609L28.4897 7.54702C28.3443 8.12873 28.0459 8.66089 27.6255 9.08837C27.205 9.51581 26.6779 9.82295 26.0986 9.97794C25.5194 10.1329 24.9093 10.1301 24.3316 9.96972C23.7538 9.80933 23.2295 9.49728 22.8131 9.06593L22.0956 8.32748C19.6633 5.81113 15.488 8.22249 16.4505 11.5858L16.7305 12.5797C16.895 13.1556 16.9026 13.765 16.7525 14.3448C16.6023 14.9246 16.3 15.4537 15.8766 15.8774C15.4533 16.301 14.9245 16.6039 14.3448 16.7545C13.7651 16.9051 13.1557 16.898 12.5797 16.7339L11.5858 16.4505C8.22599 15.488 5.81114 19.6633 8.32749 22.0956L9.06592 22.8131C9.49728 23.2295 9.80935 23.7538 9.96973 24.3315C10.1301 24.9093 10.1329 25.5194 9.97795 26.0986C9.82298 26.6778 9.51581 27.205 9.08836 27.6255C8.6609 28.0459 8.12871 28.3443 7.54704 28.4897L6.54608 28.7382C3.15131 29.5886 3.15131 34.4078 6.54608 35.2618L7.54704 35.5103C8.12871 35.6556 8.6609 35.954 9.08836 36.3745C9.51581 36.795 9.82298 37.3221 9.97795 37.9014C10.1329 38.4805 10.1301 39.0907 9.96973 39.6685C9.80935 40.2462 9.49728 40.7703 9.06592 41.1868L8.32749 41.9044C5.81114 44.3366 8.2225 48.5119 11.5858 47.5495L12.5797 47.2696C13.1559 47.1047 13.7658 47.0969 14.346 47.2471C14.9262 47.3973 15.4557 47.7 15.8795 48.124C16.3033 48.5476 16.606 49.0773 16.7562 49.6576C16.9065 50.2376 16.8988 50.8476 16.734 51.4237L16.4505 52.414C15.488 55.7739 19.6633 58.1889 22.0956 55.6724L22.8131 54.9341C23.2295 54.5026 23.7538 54.1905 24.3316 54.0302C24.9093 53.8699 25.5194 53.867 26.0986 54.0221C26.6779 54.1769 27.205 54.4841 27.6255 54.9116C28.0459 55.3392 28.3443 55.8711 28.4897 56.4531L28.7382 57.4538C29.5886 60.8487 34.408 60.8487 35.2618 57.4538L35.5104 56.4531C35.6557 55.8711 35.9539 55.3392 36.3744 54.9116C36.7949 54.4841 37.3222 54.1769 37.9014 54.0221C38.4806 53.867 39.0906 53.8699 39.6685 54.0302C40.2461 54.1905 40.7706 54.5026 41.1869 54.9341L41.9043 55.6724C44.3366 58.1889 48.512 55.7774 47.5494 52.414L47.2694 51.4201C47.1046 50.844 47.097 50.2341 47.2474 49.654C47.3974 49.0737 47.7002 48.5444 48.1242 48.1204C48.5478 47.6968 49.0774 47.3941 49.6576 47.2439C50.2378 47.0934 50.8477 47.1012 51.4237 47.266L52.4141 47.5495C55.7741 48.5119 58.1888 44.3366 55.6726 41.9044L54.9341 41.1868C54.5027 40.7703 54.1907 40.2462 54.0304 39.6685C53.8698 39.0907 53.8672 38.4805 54.0221 37.9014C54.177 37.3221 54.4842 36.795 54.9117 36.3745C55.3392 35.954 55.8714 35.6556 56.4531 35.5103L57.4538 35.2618C60.8486 34.4113 60.8486 29.5921 57.4538 28.7382L56.4531 28.4897C55.8714 28.3443 55.3392 28.0459 54.9117 27.6255C54.4842 27.205 54.177 26.6778 54.0221 26.0986C53.8672 25.5194 53.8698 24.9093 54.0304 24.3315C54.1907 23.7538 54.5027 23.2295 54.9341 22.8131L55.6726 22.0956C58.1888 19.6633 55.7776 15.488 52.4141 16.4505L51.4202 16.7304C50.8445 16.895 50.2349 16.9025 49.6554 16.7524C49.0755 16.6023 48.5462 16.3 48.1226 15.8766C47.6989 15.4533 47.3962 14.9244 47.2454 14.3448C47.095 13.7651 47.1021 13.1557 47.2659 12.5797L47.5494 11.5858C48.512 8.22597 44.3366 5.81113 41.9043 8.32748L41.1869 9.06593C40.7706 9.49728 40.2461 9.80933 39.6685 9.96972C39.0906 10.1301 38.4806 10.1329 37.9014 9.97794C37.3222 9.82295 36.7949 9.51581 36.3744 9.08837C35.9539 8.66089 35.6557 8.12873 35.5104 7.54702L35.2618 6.54609ZM32 49.4882C29.6823 49.5211 27.3813 49.0929 25.2305 48.2287C23.0798 47.3645 21.1223 46.0812 19.4717 44.454C17.8212 42.8267 16.5105 40.8874 15.6159 38.749C14.7213 36.611 14.2607 34.3161 14.2607 31.9982C14.2607 29.6803 14.7213 27.3856 15.6159 25.2473C16.5105 23.109 17.8212 21.1698 19.4717 19.5424C21.1223 17.9151 23.0798 16.632 25.2305 15.7677C27.3813 14.9035 29.6823 14.4753 32 14.5081C36.639 14.5081 41.0883 16.351 44.3686 19.6313C47.649 22.9117 49.4918 27.3608 49.4918 32C49.4918 36.639 47.649 41.0883 44.3686 44.3685C41.0883 47.649 36.639 49.4918 32 49.4918V49.4882Z" fill="#FF8C5A"/>
</svg>
