<svg width="200" height="110" xmlns="http://www.w3.org/2000/svg">
<defs>
<linearGradient id="a" x2="0" y2="70" gradientUnits="userSpaceOnUse">
<stop stop-color="#0ae" offset="0"/>
<stop stop-color="#05a" offset="1"/>
</linearGradient>
</defs>
<g transform="translate(20,20)">
<path d="m160 0h-160v70h80" fill="url(#a)"/>
<path d="m79 17.5v41l-13.7-41h-13.7l-11.6 34c-1.4-8.5-9.5-11.5-15.8-14-4.2-1.5-8.8-3.5-8.8-6 0-2 2.5-3.8 7-3.5 3.2 0.3 6 0.3 11.6 3.5l5.6-10.5c-5.3-3-12.3-4.5-17.9-4.5-6.7 0-12.3 2.3-15.8 6-2.5 2.5-3.5 6-3.9 10 0 5 1.8 9 5.6 12 3.2 2.3 7 3.5 10.5 5 4.6 1.5 8.1 3 8.1 6-0.3 3.5-3.9 4.5-6.3 4.5-4.2 0.3-7.7-0.3-13-4l-4.9 10.5c5.3 3.5 10.9 5 17.6 5 4.6 0 11.6-1.5 15.5-5.5l-0.7 3.5h13.3l2.5-6.5c5.3 1.5 11.2 2 16.5 0l1.8 6.5h24v-15h5c12.3 0 19.7-6.5 19.7-18 0-13-7-18.5-22.1-18.5zm-25.7 34l4.9-17.5h0.3l4.9 17.5c-3.5 1.1-7 1.1-10.1 0zm39-9v-14h3.5c4.6 0 8.1 1.5 8.1 6.5 0 5.5-3.5 7.5-8.1 7.5z" fill="#fff"/>
</g>
</svg>
