<svg width="24" height="24" viewBox="0 0 24 24" fill="none" xmlns="http://www.w3.org/2000/svg">
<mask id="mask0_56907_1156" style="mask-type:alpha" maskUnits="userSpaceOnUse" x="0" y="0" width="24" height="24">
<rect width="24" height="24" fill="#D9D9D9"/>
</mask>
<g mask="url(#mask0_56907_1156)">
<path d="M17 16.9999C17.4166 16.9999 17.7708 16.8541 18.0625 16.5624C18.3541 16.2707 18.5 15.9166 18.5 15.4999C18.5 15.0832 18.3541 14.7291 18.0625 14.4374C17.7708 14.1457 17.4166 13.9999 17 13.9999C16.5833 13.9999 16.2291 14.1457 15.9375 14.4374C15.6458 14.7291 15.5 15.0832 15.5 15.4999C15.5 15.9166 15.6458 16.2707 15.9375 16.5624C16.2291 16.8541 16.5833 16.9999 17 16.9999ZM17 19.9999C17.5231 19.9999 17.9997 19.8807 18.4298 19.6422C18.8599 19.4038 19.2115 19.0845 19.4846 18.6845C19.1115 18.4615 18.7166 18.2916 18.3 18.1749C17.8833 18.0582 17.45 17.9999 17 17.9999C16.55 17.9999 16.1166 18.0582 15.7 18.1749C15.2833 18.2916 14.8884 18.4615 14.5154 18.6845C14.7884 19.0845 15.14 19.4038 15.5702 19.6422C16.0003 19.8807 16.4769 19.9999 17 19.9999ZM12 21.4806C9.83716 20.8909 8.04646 19.6178 6.62787 17.6614C5.20929 15.705 4.5 13.5178 4.5 11.0999V6.59609C4.5 6.21789 4.60962 5.87655 4.82885 5.57206C5.04808 5.26756 5.33013 5.04673 5.675 4.90956L11.3673 2.78456C11.5814 2.70765 11.7923 2.66919 12 2.66919C12.2077 2.66919 12.4186 2.70765 12.6327 2.78456L18.325 4.90956C18.6698 5.04673 18.9519 5.26756 19.1711 5.57206C19.3903 5.87655 19.5 6.21789 19.5 6.59609V11.0115C19.2666 10.9166 19.0218 10.831 18.7654 10.7548C18.5089 10.6785 18.2538 10.6185 18 10.5749V6.60187C18 6.53775 17.9823 6.48005 17.9471 6.42876C17.9118 6.37748 17.8621 6.33902 17.798 6.31337L12.1058 4.18839C12.0737 4.17556 12.0384 4.16914 12 4.16914C11.9615 4.16914 11.9263 4.17556 11.8942 4.18839L6.20193 6.31337C6.13781 6.33902 6.08812 6.37748 6.05287 6.42876C6.01761 6.48005 5.99997 6.53775 5.99997 6.60187V11.0999C5.99997 11.9858 6.12497 12.8509 6.37497 13.6951C6.62497 14.5394 6.96953 15.3285 7.40865 16.0624C7.84775 16.7964 8.37243 17.4554 8.9827 18.0394C9.59297 18.6233 10.2552 19.0897 10.9693 19.4384L10.9981 19.4288C11.1302 19.7954 11.3013 20.1467 11.5116 20.4826C11.7218 20.8185 11.9609 21.1236 12.2288 21.3979C12.1865 21.4108 12.1484 21.4246 12.1144 21.4393C12.0804 21.454 12.0423 21.4678 12 21.4806ZM17 21.4999C15.7513 21.4999 14.6891 21.0621 13.8135 20.1864C12.9378 19.3108 12.5 18.2486 12.5 16.9999C12.5 15.7512 12.9378 14.689 13.8135 13.8134C14.6891 12.9378 15.7513 12.4999 17 12.4999C18.2487 12.4999 19.3109 12.9378 20.1865 13.8134C21.0621 14.689 21.5 15.7512 21.5 16.9999C21.5 18.2486 21.0621 19.3108 20.1865 20.1864C19.3109 21.0621 18.2487 21.4999 17 21.4999Z" fill="#47464F"/>
</g>
</svg>
