<svg width="24" height="24" viewBox="0 0 24 24" fill="none" xmlns="http://www.w3.org/2000/svg">
<mask id="mask0_56907_1136" style="mask-type:alpha" maskUnits="userSpaceOnUse" x="0" y="0" width="24" height="24">
<rect width="24" height="24" fill="#D9D9D9"/>
</mask>
<g mask="url(#mask0_56907_1136)">
<path d="M10.0192 15.8271H13.9808C14.2368 15.8271 14.4515 15.7404 14.6247 15.5672C14.798 15.394 14.8846 15.1793 14.8846 14.9232V11.9617C14.8846 11.7056 14.798 11.4909 14.6247 11.3177C14.4515 11.1445 14.2368 11.0579 13.9808 11.0579H13.8942V10.0579C13.8942 9.53349 13.7112 9.0883 13.3451 8.72228C12.9791 8.35627 12.5339 8.17326 12.0096 8.17326C11.4852 8.17326 11.04 8.35627 10.674 8.72228C10.308 9.0883 10.125 9.53349 10.125 10.0579V11.0579H10.0192C9.76312 11.0579 9.54846 11.1445 9.37523 11.3177C9.20199 11.4909 9.11538 11.7056 9.11538 11.9617V14.9232C9.11538 15.1793 9.20199 15.394 9.37523 15.5672C9.54846 15.7404 9.76312 15.8271 10.0192 15.8271ZM11.0096 11.0579V10.0579C11.0096 9.77453 11.1054 9.53702 11.2971 9.34536C11.4888 9.15369 11.7263 9.05786 12.0096 9.05786C12.2929 9.05786 12.5304 9.15369 12.7221 9.34536C12.9138 9.53702 13.0096 9.77453 13.0096 10.0579V11.0579H11.0096ZM12 21.3713C11.8961 21.3713 11.7942 21.3629 11.6942 21.3463C11.5942 21.3296 11.4973 21.3046 11.4036 21.2713C9.29479 20.5213 7.61698 19.1915 6.3702 17.2819C5.1234 15.3723 4.5 13.3117 4.5 11.1002V6.59633C4.5 6.21648 4.60922 5.87462 4.82765 5.57073C5.04608 5.26685 5.32853 5.04654 5.675 4.90981L11.3673 2.78481C11.5814 2.70789 11.7923 2.66943 12 2.66943C12.2077 2.66943 12.4186 2.70789 12.6327 2.78481L18.325 4.90981C18.6714 5.04654 18.9539 5.26685 19.1723 5.57073C19.3907 5.87462 19.5 6.21648 19.5 6.59633V11.1002C19.5 13.3117 18.8765 15.3723 17.6297 17.2819C16.383 19.1915 14.7052 20.5213 12.5963 21.2713C12.5026 21.3046 12.4057 21.3296 12.3057 21.3463C12.2057 21.3629 12.1038 21.3713 12 21.3713ZM12 19.9002C13.7333 19.3502 15.1666 18.2502 16.3 16.6002C17.4333 14.9502 18 13.1168 18 11.1002V6.58671C18 6.52261 17.9823 6.46492 17.9471 6.41363C17.9118 6.36233 17.8621 6.32387 17.798 6.29823L12.1057 4.17323C12.0737 4.16042 12.0384 4.15401 12 4.15401C11.9615 4.15401 11.9263 4.16042 11.8942 4.17323L6.20192 6.29823C6.13781 6.32387 6.08812 6.36233 6.05287 6.41363C6.01761 6.46492 5.99997 6.52261 5.99997 6.58671V11.1002C5.99997 13.1168 6.56664 14.9502 7.69997 16.6002C8.83331 18.2502 10.2666 19.3502 12 19.9002Z" fill="#47464F"/>
</g>
</svg>
