<svg width="24" height="24" viewBox="0 0 24 24" fill="none" xmlns="http://www.w3.org/2000/svg">
<mask id="mask0_56907_1146" style="mask-type:alpha" maskUnits="userSpaceOnUse" x="0" y="0" width="24" height="24">
<rect width="24" height="24" fill="#D9D9D9"/>
</mask>
<g mask="url(#mask0_56907_1146)">
<path d="M10.8923 21.5C10.5513 21.5 10.2567 21.3868 10.0087 21.1605C9.76059 20.9342 9.60963 20.6557 9.55578 20.325L9.31156 18.4538C9.04361 18.3641 8.76893 18.2384 8.48751 18.0769C8.20609 17.9153 7.95448 17.7422 7.73269 17.5576L5.99998 18.2942C5.68588 18.4326 5.37018 18.4461 5.05288 18.3346C4.73558 18.223 4.48912 18.0205 4.31348 17.7269L3.18656 15.773C3.01093 15.4794 2.96028 15.1689 3.03463 14.8413C3.109 14.5138 3.27951 14.2436 3.54616 14.0308L5.04426 12.9058C5.02118 12.757 5.00483 12.6077 4.99521 12.4577C4.98559 12.3077 4.98078 12.1583 4.98078 12.0096C4.98078 11.8673 4.98559 11.7227 4.99521 11.5759C5.00483 11.4291 5.02118 11.2686 5.04426 11.0942L3.54616 9.96918C3.27951 9.75636 3.1106 9.48458 3.03943 9.15383C2.96828 8.82306 3.02053 8.51088 3.19618 8.2173L4.31348 6.2923C4.48912 6.00513 4.73558 5.80418 5.05288 5.68943C5.37018 5.57469 5.68588 5.58655 5.99998 5.725L7.72306 6.45195C7.96409 6.26092 8.22147 6.08623 8.49519 5.9279C8.76892 5.76955 9.03783 5.6423 9.30193 5.54615L9.55578 3.67498C9.60963 3.34423 9.76059 3.06571 10.0087 2.83943C10.2567 2.61314 10.5513 2.5 10.8923 2.5H13.1077C13.4487 2.5 13.7432 2.61314 13.9913 2.83943C14.2394 3.06571 14.3903 3.34423 14.4442 3.67498L14.6884 5.55578C14.9884 5.66474 15.2599 5.79198 15.5029 5.9375C15.7458 6.08302 15.991 6.2545 16.2384 6.45195L18.0096 5.725C18.3237 5.58655 18.6394 5.57469 18.9567 5.68943C19.274 5.80418 19.5205 6.00513 19.6961 6.2923L20.8134 8.22693C20.989 8.52051 21.0397 8.83108 20.9653 9.15863C20.891 9.48618 20.7205 9.75636 20.4538 9.96918L18.9173 11.123C18.9532 11.2846 18.9727 11.4355 18.9759 11.5759C18.9791 11.7163 18.9807 11.8577 18.9807 12C18.9807 12.1359 18.9775 12.274 18.9711 12.4144C18.9647 12.5548 18.9416 12.7154 18.9019 12.8962L20.4096 14.0308C20.6762 14.2436 20.8483 14.5138 20.9259 14.8413C21.0035 15.1689 20.9544 15.4794 20.7788 15.773L19.6461 17.7173C19.4705 18.0108 19.2224 18.2134 18.9019 18.325C18.5814 18.4365 18.2641 18.423 17.95 18.2846L16.2384 17.548C15.991 17.7455 15.7384 17.9201 15.4807 18.0721C15.223 18.224 14.9589 18.348 14.6884 18.4442L14.4442 20.325C14.3903 20.6557 14.2394 20.9342 13.9913 21.1605C13.7432 21.3868 13.4487 21.5 13.1077 21.5H10.8923ZM11 20H12.9654L13.325 17.3211C13.8352 17.1878 14.3016 16.9984 14.724 16.7529C15.1464 16.5074 15.5538 16.1917 15.9461 15.8058L18.4308 16.85L19.4154 15.15L17.2461 13.5154C17.3295 13.2564 17.3862 13.0025 17.4163 12.7538C17.4465 12.5051 17.4615 12.2538 17.4615 12C17.4615 11.7397 17.4465 11.4884 17.4163 11.2461C17.3862 11.0038 17.3295 10.7564 17.2461 10.5038L19.4346 8.84998L18.45 7.14998L15.9365 8.2096C15.6019 7.8519 15.201 7.53588 14.7336 7.26153C14.2663 6.98716 13.7936 6.79293 13.3154 6.67883L13 3.99998H11.0154L10.6846 6.6692C10.1743 6.78972 9.70319 6.97433 9.27113 7.22305C8.83908 7.47177 8.42691 7.79228 8.03461 8.1846L5.54998 7.14998L4.56536 8.84998L6.72498 10.4596C6.64165 10.6968 6.58332 10.9436 6.54998 11.2C6.51665 11.4564 6.49998 11.7263 6.49998 12.0096C6.49998 12.2699 6.51665 12.525 6.54998 12.775C6.58332 13.025 6.63844 13.2718 6.71536 13.5154L4.56536 15.15L5.54998 16.85L8.02498 15.8C8.40447 16.1897 8.81023 16.509 9.24228 16.7577C9.67433 17.0064 10.1519 17.1974 10.675 17.3308L11 20ZM12.0115 15C12.8436 15 13.5516 14.708 14.1355 14.124C14.7195 13.54 15.0115 12.832 15.0115 12C15.0115 11.1679 14.7195 10.4599 14.1355 9.87595C13.5516 9.29198 12.8436 9 12.0115 9C11.1692 9 10.4587 9.29198 9.87981 9.87595C9.30098 10.4599 9.01156 11.1679 9.01156 12C9.01156 12.832 9.30098 13.54 9.87981 14.124C10.4587 14.708 11.1692 15 12.0115 15Z" fill="#47464F"/>
</g>
</svg>
